<svg width="482" height="2096" viewBox="0 0 482 2096" fill="none" xmlns="http://www.w3.org/2000/svg">
<path d="M0 2023.15L0 2096H37.6934L0 2023.15Z" fill="url(#paint0_linear_101_1842)"/>
<path d="M122.9 2096H80.2965L0 1940.81L0 1858.47L122.9 2096Z" fill="url(#paint1_linear_101_1842)"/>
<path d="M208.106 2096H165.503L0 1776.13L0 1693.8L208.106 2096Z" fill="url(#paint2_linear_101_1842)"/>
<path d="M293.312 2096H250.709L0 1611.46L0 1529.12L293.312 2096Z" fill="url(#paint3_linear_101_1842)"/>
<path d="M378.519 2096H335.916L0 1446.78L0 1364.44L378.519 2096Z" fill="url(#paint4_linear_101_1842)"/>
<path d="M463.725 2096H421.122L0 1282.1L0 1199.76L463.725 2096Z" fill="url(#paint5_linear_101_1842)"/>
<path d="M482 1966.64V2048.98L0 1117.43L0 1035.09L482 1966.64Z" fill="url(#paint6_linear_101_1842)"/>
<path d="M482 1801.96V1884.3L0 952.748L0 870.409L482 1801.96Z" fill="url(#paint7_linear_101_1842)"/>
<path d="M482 1637.29V1719.63L0 788.071L0 705.732L482 1637.29Z" fill="url(#paint8_linear_101_1842)"/>
<path d="M482 1472.61V1554.95L0 623.393L0 541.055L482 1472.61Z" fill="url(#paint9_linear_101_1842)"/>
<path d="M482 1307.93V1390.27L0 458.716L0 376.377L482 1307.93Z" fill="url(#paint10_linear_101_1842)"/>
<path d="M482 1143.26V1225.59L0 294.039L0 211.7L482 1143.26Z" fill="url(#paint11_linear_101_1842)"/>
<path d="M482 978.578V1060.92L0 129.362L0 47.0229L482 978.578Z" fill="url(#paint12_linear_101_1842)"/>
<path d="M482 813.901V896.24L18.2729 0H60.8761L482 813.901Z" fill="url(#paint13_linear_101_1842)"/>
<path d="M482 649.224V731.562L103.479 0H146.082L482 649.224Z" fill="url(#paint14_linear_101_1842)"/>
<path d="M482 484.547V566.885L188.686 0H231.289L482 484.547Z" fill="url(#paint15_linear_101_1842)"/>
<path d="M482 319.869V402.208L273.892 0H316.495L482 319.869Z" fill="url(#paint16_linear_101_1842)"/>
<path d="M482 155.192V237.531L359.098 0H401.702L482 155.192Z" fill="url(#paint17_linear_101_1842)"/>
<path d="M444.305 0H482V72.8533L444.305 0Z" fill="url(#paint18_linear_101_1842)"/>
<defs>
<linearGradient id="paint0_linear_101_1842" x1="-152.474" y1="2866.4" x2="1524.98" y2="910.861" gradientUnits="userSpaceOnUse">
<stop stop-color="#919191"/>
<stop offset="1" stop-opacity="0"/>
</linearGradient>
<linearGradient id="paint1_linear_101_1842" x1="-152.474" y1="2866.4" x2="1524.98" y2="910.861" gradientUnits="userSpaceOnUse">
<stop stop-color="#919191"/>
<stop offset="1" stop-opacity="0"/>
</linearGradient>
<linearGradient id="paint2_linear_101_1842" x1="-152.474" y1="2866.4" x2="1524.98" y2="910.861" gradientUnits="userSpaceOnUse">
<stop stop-color="#919191"/>
<stop offset="1" stop-opacity="0"/>
</linearGradient>
<linearGradient id="paint3_linear_101_1842" x1="-152.474" y1="2866.4" x2="1524.98" y2="910.861" gradientUnits="userSpaceOnUse">
<stop stop-color="#919191"/>
<stop offset="1" stop-opacity="0"/>
</linearGradient>
<linearGradient id="paint4_linear_101_1842" x1="-152.474" y1="2866.4" x2="1524.98" y2="910.861" gradientUnits="userSpaceOnUse">
<stop stop-color="#919191"/>
<stop offset="1" stop-opacity="0"/>
</linearGradient>
<linearGradient id="paint5_linear_101_1842" x1="-152.474" y1="2866.4" x2="1524.98" y2="910.861" gradientUnits="userSpaceOnUse">
<stop stop-color="#919191"/>
<stop offset="1" stop-opacity="0"/>
</linearGradient>
<linearGradient id="paint6_linear_101_1842" x1="-152.474" y1="2866.4" x2="1524.98" y2="910.861" gradientUnits="userSpaceOnUse">
<stop stop-color="#919191"/>
<stop offset="1" stop-opacity="0"/>
</linearGradient>
<linearGradient id="paint7_linear_101_1842" x1="-152.474" y1="2866.4" x2="1524.98" y2="910.861" gradientUnits="userSpaceOnUse">
<stop stop-color="#919191"/>
<stop offset="1" stop-opacity="0"/>
</linearGradient>
<linearGradient id="paint8_linear_101_1842" x1="-152.474" y1="2866.4" x2="1524.98" y2="910.861" gradientUnits="userSpaceOnUse">
<stop stop-color="#919191"/>
<stop offset="1" stop-opacity="0"/>
</linearGradient>
<linearGradient id="paint9_linear_101_1842" x1="-152.474" y1="2866.4" x2="1524.98" y2="910.861" gradientUnits="userSpaceOnUse">
<stop stop-color="#919191"/>
<stop offset="1" stop-opacity="0"/>
</linearGradient>
<linearGradient id="paint10_linear_101_1842" x1="-152.474" y1="2866.4" x2="1524.98" y2="910.861" gradientUnits="userSpaceOnUse">
<stop stop-color="#919191"/>
<stop offset="1" stop-opacity="0"/>
</linearGradient>
<linearGradient id="paint11_linear_101_1842" x1="-152.474" y1="2866.4" x2="1524.98" y2="910.861" gradientUnits="userSpaceOnUse">
<stop stop-color="#919191"/>
<stop offset="1" stop-opacity="0"/>
</linearGradient>
<linearGradient id="paint12_linear_101_1842" x1="-152.474" y1="2866.4" x2="1524.98" y2="910.861" gradientUnits="userSpaceOnUse">
<stop stop-color="#919191"/>
<stop offset="1" stop-opacity="0"/>
</linearGradient>
<linearGradient id="paint13_linear_101_1842" x1="-152.474" y1="2866.4" x2="1524.98" y2="910.861" gradientUnits="userSpaceOnUse">
<stop stop-color="#919191"/>
<stop offset="1" stop-opacity="0"/>
</linearGradient>
<linearGradient id="paint14_linear_101_1842" x1="-152.474" y1="2866.4" x2="1524.98" y2="910.861" gradientUnits="userSpaceOnUse">
<stop stop-color="#919191"/>
<stop offset="1" stop-opacity="0"/>
</linearGradient>
<linearGradient id="paint15_linear_101_1842" x1="-152.474" y1="2866.4" x2="1524.98" y2="910.861" gradientUnits="userSpaceOnUse">
<stop stop-color="#919191"/>
<stop offset="1" stop-opacity="0"/>
</linearGradient>
<linearGradient id="paint16_linear_101_1842" x1="-152.474" y1="2866.4" x2="1524.98" y2="910.861" gradientUnits="userSpaceOnUse">
<stop stop-color="#919191"/>
<stop offset="1" stop-opacity="0"/>
</linearGradient>
<linearGradient id="paint17_linear_101_1842" x1="-152.474" y1="2866.4" x2="1524.98" y2="910.861" gradientUnits="userSpaceOnUse">
<stop stop-color="#919191"/>
<stop offset="1" stop-opacity="0"/>
</linearGradient>
<linearGradient id="paint18_linear_101_1842" x1="-152.474" y1="2866.4" x2="1524.98" y2="910.861" gradientUnits="userSpaceOnUse">
<stop stop-color="#919191"/>
<stop offset="1" stop-opacity="0"/>
</linearGradient>
</defs>
</svg>
