<svg width="481" height="2096" viewBox="0 0 481 2096" fill="none" xmlns="http://www.w3.org/2000/svg">
<path d="M1.76502e-06 72.8495L0 0L37.6934 -2.97256e-06L1.76502e-06 72.8495Z" fill="url(#paint0_linear_101_1841)"/>
<path d="M122.9 -9.69209e-06L80.2965 -6.33232e-06L3.75994e-06 155.188L5.75487e-06 237.527L122.9 -9.69209e-06Z" fill="url(#paint1_linear_101_1841)"/>
<path d="M208.106 -1.64116e-05L165.503 -1.30518e-05L7.74979e-06 319.865L9.74472e-06 402.204L208.106 -1.64116e-05Z" fill="url(#paint2_linear_101_1841)"/>
<path d="M293.312 -2.31311e-05L250.709 -1.97714e-05L1.17396e-05 484.543L1.37346e-05 566.881L293.312 -2.31311e-05Z" fill="url(#paint3_linear_101_1841)"/>
<path d="M378.519 -2.98506e-05L335.916 -2.64909e-05L1.57295e-05 649.22L1.77244e-05 731.559L378.519 -2.98506e-05Z" fill="url(#paint4_linear_101_1841)"/>
<path d="M463.725 -3.65702e-05L421.122 -3.32104e-05L1.97193e-05 813.897L2.17143e-05 896.236L463.725 -3.65702e-05Z" fill="url(#paint5_linear_101_1841)"/>
<path d="M482 129.358L482 47.0191L2.37092e-05 978.575L2.57041e-05 1060.91L482 129.358Z" fill="url(#paint6_linear_101_1841)"/>
<path d="M482 294.035L482 211.696L2.7699e-05 1143.25L2.9694e-05 1225.59L482 294.035Z" fill="url(#paint7_linear_101_1841)"/>
<path d="M482 458.712L482 376.374L3.16889e-05 1307.93L3.36838e-05 1390.27L482 458.712Z" fill="url(#paint8_linear_101_1841)"/>
<path d="M482 623.39L482 541.051L3.56787e-05 1472.61L3.76737e-05 1554.95L482 623.39Z" fill="url(#paint9_linear_101_1841)"/>
<path d="M482 788.067L482 705.728L3.96686e-05 1637.28L4.16635e-05 1719.62L482 788.067Z" fill="url(#paint10_linear_101_1841)"/>
<path d="M482 952.744L482 870.406L4.36584e-05 1801.96L4.56534e-05 1884.3L482 952.744Z" fill="url(#paint11_linear_101_1841)"/>
<path d="M482 1117.42L482 1035.08L4.76483e-05 1966.64L4.96432e-05 2048.98L482 1117.42Z" fill="url(#paint12_linear_101_1841)"/>
<path d="M482 1282.1L482 1199.76L18.2729 2096L60.8762 2096L482 1282.1Z" fill="url(#paint13_linear_101_1841)"/>
<path d="M482 1446.78L482 1364.44L103.479 2096L146.082 2096L482 1446.78Z" fill="url(#paint14_linear_101_1841)"/>
<path d="M482 1611.45L482 1529.11L188.686 2096L231.289 2096L482 1611.45Z" fill="url(#paint15_linear_101_1841)"/>
<path d="M482 1776.13L482 1693.79L273.892 2096L316.495 2096L482 1776.13Z" fill="url(#paint16_linear_101_1841)"/>
<path d="M482 1940.81L482 1858.47L359.098 2096L401.702 2096L482 1940.81Z" fill="url(#paint17_linear_101_1841)"/>
<path d="M444.305 2096L482 2096L482 2023.15L444.305 2096Z" fill="url(#paint18_linear_101_1841)"/>
<defs>
<linearGradient id="paint0_linear_101_1841" x1="-152.474" y1="-770.402" x2="1524.98" y2="1185.14" gradientUnits="userSpaceOnUse">
<stop stop-color="#919191"/>
<stop offset="1" stop-opacity="0"/>
</linearGradient>
<linearGradient id="paint1_linear_101_1841" x1="-152.474" y1="-770.402" x2="1524.98" y2="1185.14" gradientUnits="userSpaceOnUse">
<stop stop-color="#919191"/>
<stop offset="1" stop-opacity="0"/>
</linearGradient>
<linearGradient id="paint2_linear_101_1841" x1="-152.474" y1="-770.402" x2="1524.98" y2="1185.14" gradientUnits="userSpaceOnUse">
<stop stop-color="#919191"/>
<stop offset="1" stop-opacity="0"/>
</linearGradient>
<linearGradient id="paint3_linear_101_1841" x1="-152.474" y1="-770.402" x2="1524.98" y2="1185.14" gradientUnits="userSpaceOnUse">
<stop stop-color="#919191"/>
<stop offset="1" stop-opacity="0"/>
</linearGradient>
<linearGradient id="paint4_linear_101_1841" x1="-152.474" y1="-770.402" x2="1524.98" y2="1185.14" gradientUnits="userSpaceOnUse">
<stop stop-color="#919191"/>
<stop offset="1" stop-opacity="0"/>
</linearGradient>
<linearGradient id="paint5_linear_101_1841" x1="-152.474" y1="-770.402" x2="1524.98" y2="1185.14" gradientUnits="userSpaceOnUse">
<stop stop-color="#919191"/>
<stop offset="1" stop-opacity="0"/>
</linearGradient>
<linearGradient id="paint6_linear_101_1841" x1="-152.474" y1="-770.402" x2="1524.98" y2="1185.14" gradientUnits="userSpaceOnUse">
<stop stop-color="#919191"/>
<stop offset="1" stop-opacity="0"/>
</linearGradient>
<linearGradient id="paint7_linear_101_1841" x1="-152.474" y1="-770.402" x2="1524.98" y2="1185.14" gradientUnits="userSpaceOnUse">
<stop stop-color="#919191"/>
<stop offset="1" stop-opacity="0"/>
</linearGradient>
<linearGradient id="paint8_linear_101_1841" x1="-152.474" y1="-770.402" x2="1524.98" y2="1185.14" gradientUnits="userSpaceOnUse">
<stop stop-color="#919191"/>
<stop offset="1" stop-opacity="0"/>
</linearGradient>
<linearGradient id="paint9_linear_101_1841" x1="-152.474" y1="-770.402" x2="1524.98" y2="1185.14" gradientUnits="userSpaceOnUse">
<stop stop-color="#919191"/>
<stop offset="1" stop-opacity="0"/>
</linearGradient>
<linearGradient id="paint10_linear_101_1841" x1="-152.474" y1="-770.402" x2="1524.98" y2="1185.14" gradientUnits="userSpaceOnUse">
<stop stop-color="#919191"/>
<stop offset="1" stop-opacity="0"/>
</linearGradient>
<linearGradient id="paint11_linear_101_1841" x1="-152.474" y1="-770.402" x2="1524.98" y2="1185.14" gradientUnits="userSpaceOnUse">
<stop stop-color="#919191"/>
<stop offset="1" stop-opacity="0"/>
</linearGradient>
<linearGradient id="paint12_linear_101_1841" x1="-152.474" y1="-770.402" x2="1524.98" y2="1185.14" gradientUnits="userSpaceOnUse">
<stop stop-color="#919191"/>
<stop offset="1" stop-opacity="0"/>
</linearGradient>
<linearGradient id="paint13_linear_101_1841" x1="-152.474" y1="-770.402" x2="1524.98" y2="1185.14" gradientUnits="userSpaceOnUse">
<stop stop-color="#919191"/>
<stop offset="1" stop-opacity="0"/>
</linearGradient>
<linearGradient id="paint14_linear_101_1841" x1="-152.474" y1="-770.402" x2="1524.98" y2="1185.14" gradientUnits="userSpaceOnUse">
<stop stop-color="#919191"/>
<stop offset="1" stop-opacity="0"/>
</linearGradient>
<linearGradient id="paint15_linear_101_1841" x1="-152.474" y1="-770.402" x2="1524.98" y2="1185.14" gradientUnits="userSpaceOnUse">
<stop stop-color="#919191"/>
<stop offset="1" stop-opacity="0"/>
</linearGradient>
<linearGradient id="paint16_linear_101_1841" x1="-152.474" y1="-770.402" x2="1524.98" y2="1185.14" gradientUnits="userSpaceOnUse">
<stop stop-color="#919191"/>
<stop offset="1" stop-opacity="0"/>
</linearGradient>
<linearGradient id="paint17_linear_101_1841" x1="-152.474" y1="-770.402" x2="1524.98" y2="1185.14" gradientUnits="userSpaceOnUse">
<stop stop-color="#919191"/>
<stop offset="1" stop-opacity="0"/>
</linearGradient>
<linearGradient id="paint18_linear_101_1841" x1="-152.474" y1="-770.402" x2="1524.98" y2="1185.14" gradientUnits="userSpaceOnUse">
<stop stop-color="#919191"/>
<stop offset="1" stop-opacity="0"/>
</linearGradient>
</defs>
</svg>
