<svg width="42" height="42" viewBox="0 0 42 42" fill="none" xmlns="http://www.w3.org/2000/svg">
<path d="M32.8125 0.75H9.1875C4.52831 0.75 0.75 4.52831 0.75 9.1875V32.8125C0.75 37.4717 4.52831 41.25 9.1875 41.25H32.8125C37.4734 41.25 41.25 37.4717 41.25 32.8125V9.1875C41.25 4.52831 37.4734 0.75 32.8125 0.75ZM14.25 32.8125H9.1875V14.25H14.25V32.8125ZM11.7188 12.1102C10.0886 12.1102 8.76562 10.7771 8.76562 9.1335C8.76562 7.48987 10.0886 6.15675 11.7188 6.15675C13.3489 6.15675 14.6719 7.48987 14.6719 9.1335C14.6719 10.7771 13.3506 12.1102 11.7188 12.1102ZM34.5 32.8125H29.4375V23.3557C29.4375 17.6722 22.6875 18.1026 22.6875 23.3557V32.8125H17.625V14.25H22.6875V17.2284C25.0432 12.8646 34.5 12.5423 34.5 21.4067V32.8125Z" fill="#939393"/>
</svg>
